<svg id="Layer_1" data-name="Layer 1" xmlns="http://www.w3.org/2000/svg" viewBox="0 0 230 64">
  <title>Artboard 1</title>
  <polygon points="18.1 50.8 14.9 50.8 29.5 15.3 32.7 15.3 18.1 50.8" style="fill:#ffffff"/>
  <polygon points="10.5 50.8 7.3 50.8 21.9 15.3 25.1 15.3 10.5 50.8" style="fill:#ffffff"/>
  <path d="M76.7,50.7V47.1h-.1a6.1,6.1,0,0,1-1.2,1.6A10.1,10.1,0,0,1,73.8,50a7.22,7.22,0,0,1-2,.9,8.75,8.75,0,0,1-2.4.3c-2.8,0-4.9-.8-6.4-2.5s-2.2-4.2-2.2-7.5V26.7h5.5V40.5a8.47,8.47,0,0,0,.4,2.9,4.89,4.89,0,0,0,1,1.9,4.57,4.57,0,0,0,1.6,1.1,6.45,6.45,0,0,0,2,.3,5,5,0,0,0,3.8-1.6,5.61,5.61,0,0,0,1.2-2,7.66,7.66,0,0,0,.4-2.7V26.6h5.4V50.5H76.7Z" style="fill:#ffffff"/>
  <path d="M93.8,18.4a5,5,0,0,1-.2,1.2,3.51,3.51,0,0,1-1.7,1.7,2.74,2.74,0,0,1-1.3.2,5.06,5.06,0,0,1-1.3-.2,4.13,4.13,0,0,1-1.1-.7,3.59,3.59,0,0,1-.7-1,2.54,2.54,0,0,1-.2-1.2,2.77,2.77,0,0,1,.3-1.3,3.51,3.51,0,0,1,1.7-1.7,2.74,2.74,0,0,1,1.3-.2,5.06,5.06,0,0,1,1.3.2,2.55,2.55,0,0,1,1,.7,3.59,3.59,0,0,1,.7,1,5.06,5.06,0,0,1,.2,1.3" style="fill:#ffffff"/>
  <rect x="87.8" y="26.8" width="5.4" height="23.9" style="fill:#ffffff"/>
  <rect x="98.3" y="15.3" width="5.4" height="35.4" style="fill:#ffffff"/>
  <path d="M52.2,37.8a9.72,9.72,0,0,0-.4-3.1,9,9,0,0,0-1.2-2.4,4.54,4.54,0,0,0-1.9-1.5,5.5,5.5,0,0,0-2.6-.5,7.08,7.08,0,0,0-2.6.5,5,5,0,0,0-2,1.5,5.76,5.76,0,0,0-1.3,2.3,9.43,9.43,0,0,0-.5,3v3.2a6.05,6.05,0,0,0,.4,2.4,6.66,6.66,0,0,0,1.2,2,5,5,0,0,0,1.9,1.3,6,6,0,0,0,2.4.5,6.71,6.71,0,0,0,2.8-.6,5.65,5.65,0,0,0,2.1-1.7,7.27,7.27,0,0,0,1.3-2.8,25.91,25.91,0,0,0,.4-4.1m5.7.1a19,19,0,0,1-.7,5.4A12.51,12.51,0,0,1,55,47.6a9.66,9.66,0,0,1-3.5,2.8,10.58,10.58,0,0,1-4.8,1,8.52,8.52,0,0,1-2.3-.3,6.39,6.39,0,0,1-1.9-.8A4.43,4.43,0,0,1,41,49.1a9.83,9.83,0,0,1-1.2-1.5h-.1v3.1H34.2V24l3.6-8.7h1.9V30.2h.1a8.62,8.62,0,0,1,1.4-1.8A6.23,6.23,0,0,1,43,27a8.49,8.49,0,0,1,2.2-.9,11.15,11.15,0,0,1,2.7-.3,8.82,8.82,0,0,1,4.5,1,7.36,7.36,0,0,1,3.1,2.7,11.67,11.67,0,0,1,1.8,3.9,15.32,15.32,0,0,1,.6,4.5" style="fill:#ffffff"/>
  <path d="M125.5,36.8a6.87,6.87,0,0,0-.5-2.4,8.17,8.17,0,0,0-1.2-2,4.31,4.31,0,0,0-1.9-1.3,5.93,5.93,0,0,0-2.3-.5,6.09,6.09,0,0,0-2.8.6,5.51,5.51,0,0,0-2,1.7,8.45,8.45,0,0,0-1.2,2.7,12.48,12.48,0,0,0-.4,3.5,11.59,11.59,0,0,0,.5,3.4,5.53,5.53,0,0,0,1.3,2.4,5.22,5.22,0,0,0,1.9,1.4,6,6,0,0,0,4.8,0,7,7,0,0,0,2-1.5,5.53,5.53,0,0,0,1.3-2.4,10.07,10.07,0,0,0,.5-3.1Zm-.1,13.9V47h-.1a11.8,11.8,0,0,1-1.3,1.8,11.51,11.51,0,0,1-1.7,1.4,7.26,7.26,0,0,1-2.2.9,10.9,10.9,0,0,1-2.6.3,10.07,10.07,0,0,1-3.9-.8,7.88,7.88,0,0,1-3.1-2.3,10.71,10.71,0,0,1-2.1-3.8,16.37,16.37,0,0,1-.7-5.2,18,18,0,0,1,.8-5.4,12.35,12.35,0,0,1,2.2-4.1,10,10,0,0,1,3.5-2.6,10.63,10.63,0,0,1,4.5-.9,8.52,8.52,0,0,1,2.3.3,10.67,10.67,0,0,1,1.9.7,5.83,5.83,0,0,1,1.5,1.1,7.55,7.55,0,0,1,1.1,1.4h.1V15.3H131V50.7h-5.6Z" style="fill:#ffffff"/>
  <path d="M153.7,49.9a13.45,13.45,0,0,1-6.8,1.7,11.53,11.53,0,0,1-8.6-3.3,11.76,11.76,0,0,1-3.3-8.7,13.08,13.08,0,0,1,3.5-9.5,12.51,12.51,0,0,1,9.4-3.6,15,15,0,0,1,5.8,1.1v5.1a8.62,8.62,0,0,0-5.3-1.9,7.38,7.38,0,0,0-5.6,2.3,8.75,8.75,0,0,0-2.2,6.1,8.19,8.19,0,0,0,2.1,5.9,7.17,7.17,0,0,0,5.6,2.2,8.42,8.42,0,0,0,5.5-2.1v4.7Z" style="fill:#046dd7"/>
  <path d="M177.1,51h-5.3V47.2h-.1a8,8,0,0,1-7.3,4.3,7.36,7.36,0,0,1-5.5-1.9,6.93,6.93,0,0,1-2-5.1c0-4.5,2.6-7.2,7.8-7.9l7.1-1c0-3.4-1.6-5.1-4.9-5.1a11.32,11.32,0,0,0-7.7,3V28.7a17,17,0,0,1,8.8-2.3c6.1,0,9.1,3,9.1,9Zm-5.3-11.8-5,.7a8.47,8.47,0,0,0-3.5,1.1,3.19,3.19,0,0,0-1.2,2.9,3.41,3.41,0,0,0,1.1,2.5,4,4,0,0,0,2.9,1,5.5,5.5,0,0,0,4.1-1.7,6,6,0,0,0,1.6-4.4Z" style="fill:#046dd7"/>
  <path d="M181.7,50.3v-5a11.09,11.09,0,0,0,6.7,2.3c3.3,0,4.9-1,4.9-2.9a2.3,2.3,0,0,0-.4-1.4,5.24,5.24,0,0,0-1.1-1,5.39,5.39,0,0,0-1.7-.8c-.7-.2-1.4-.5-2.2-.8q-1.5-.6-2.7-1.2a7.49,7.49,0,0,1-2-1.5,5.54,5.54,0,0,1-1.2-1.9,7,7,0,0,1,.4-5.6,6.61,6.61,0,0,1,2.2-2.2,10.91,10.91,0,0,1,3.1-1.4,14.22,14.22,0,0,1,3.6-.5,16.43,16.43,0,0,1,6,1v4.8a9.66,9.66,0,0,0-5.8-1.7,11.07,11.07,0,0,0-1.9.2,3,3,0,0,0-1.4.6,3.82,3.82,0,0,0-.9.9,2.13,2.13,0,0,0-.3,1.2,2.5,2.5,0,0,0,.3,1.3,2.23,2.23,0,0,0,1,.9c.5.2.9.5,1.5.8a10.33,10.33,0,0,0,2.1.7c1,.4,2,.9,2.8,1.3a8,8,0,0,1,2.1,1.5,5.86,5.86,0,0,1,1.3,1.9,6.69,6.69,0,0,1,.5,2.6,6.6,6.6,0,0,1-.8,3.2,6.33,6.33,0,0,1-2.3,2.3,11.32,11.32,0,0,1-3.2,1.3,16.11,16.11,0,0,1-3.9.4A17.39,17.39,0,0,1,181.7,50.3Z" style="fill:#046dd7"/>
  <path d="M216.1,50.7a10.14,10.14,0,0,1-4.2.8c-4.7,0-7-2.2-7-6.7V31.2h-4V27h4V21.4l5.4-1.5V27H216v4.3h-5.7v12a4.68,4.68,0,0,0,.8,3,3.27,3.27,0,0,0,2.6.9,4.07,4.07,0,0,0,2.4-.8v4.3Z" style="fill:#046dd7"/>
</svg>